<svg xmlns="http://www.w3.org/2000/svg" viewBox="0 0 64 64">
  <defs>
    <linearGradient id="bg" x1="8" y1="5" x2="56" y2="59" gradientUnits="userSpaceOnUse">
      <stop stop-color="#321641" />
      <stop offset="1" stop-color="#110b17" />
    </linearGradient>
    <linearGradient id="sweet" x1="22" y1="22" x2="43" y2="43" gradientUnits="userSpaceOnUse">
      <stop stop-color="#e8752e" />
      <stop offset="1" stop-color="#9f321a" />
    </linearGradient>
  </defs>

  <rect x="2" y="2" width="60" height="60" rx="14" fill="url(#bg)" />
  <rect x="4.5" y="4.5" width="55" height="55" rx="11.5" fill="none" stroke="#c9a45c" />

  <path
    d="M22 25 11 19l3 9-6 4 6 4-3 9 11-6V25Zm20 0 11-6-3 9 6 4-6 4 3 9-11-6V25Z"
    fill="#bd4d20"
    stroke="#ead29a"
    stroke-linejoin="round"
    stroke-width="1.5"
  />
  <rect x="19" y="20" width="26" height="24" rx="10" fill="url(#sweet)" stroke="#ead29a" stroke-width="2" />
  <path d="M25 38V26l7 8 7-8v12" fill="none" stroke="#f5ead2" stroke-linecap="round" stroke-linejoin="round" stroke-width="3" />
  <path d="m32 10 1.4 3.6L37 15l-3.6 1.4L32 20l-1.4-3.6L27 15l3.6-1.4L32 10Z" fill="#ead29a" />
</svg>
